<svg xmlns="http://www.w3.org/2000/svg" viewBox="0 0 156.78 233.14"><defs><style>.cls-1{fill:#231e1a;}</style></defs><g id="Capa_2" data-name="Capa 2"><g id="Capa_1-2" data-name="Capa 1"><polygon class="cls-1" points="134.78 9.81 136.4 0 141.92 8.27 150.6 3.42 147.57 12.89 156.78 16.65 147.49 20.19 150.28 29.73 141.72 24.68 136.01 32.82 134.62 22.97 124.7 23.57 131.53 16.35 124.87 8.97 134.78 9.81"/><polygon class="cls-1" points="133.49 175.04 139.45 173.55 136.12 178.7 140.99 182.44 134.88 183.04 135 189.18 130.72 184.78 126 188.71 126.77 182.61 120.75 181.37 126 178.17 123.22 172.69 128.99 174.8 131.54 169.21 133.49 175.04"/><polygon class="cls-1" points="3.57 133.51 0 130.3 4.8 130.2 5.08 125.41 8.14 129.1 12.06 126.34 11.09 131.03 15.7 132.37 11.42 134.54 13.24 138.98 8.88 136.99 6.55 141.18 5.39 136.53 0.66 137.32 3.57 133.51"/><rect class="cls-1" x="55.32" y="179.32" width="48.59" height="21.95"/><path class="cls-1" d="M55.32,205.45h48.59a0,0,0,0,1,0,0v3.4a24.3,24.3,0,0,1-24.3,24.3h0a24.3,24.3,0,0,1-24.3-24.3v-3.4a0,0,0,0,1,0,0Z"/><polygon class="cls-1" points="92.42 124.98 65.56 124.98 68.73 175.14 90.19 175.14 92.42 124.98"/><path class="cls-1" d="M78.13,21.53A58.53,58.53,0,0,0,32.86,116.1a94.85,94.85,0,0,1,18.7,41.74l3.1,17.3H63.5L60,119.76H97.88l-2.46,55.38h8.88l2.88-17.38a92.56,92.56,0,0,1,18-41.83,58.52,58.52,0,0,0-47.06-94.4Z"/></g></g></svg>