<svg xmlns="http://www.w3.org/2000/svg" viewBox="0 0 30 21.92"><defs><style>.cls-1{fill:#231e1a;}</style></defs><g id="Capa_2" data-name="Capa 2"><g id="Capa_1-2" data-name="Capa 1"><g id="Layer_17" data-name="Layer 17"><path class="cls-1" d="M25.52,0h-21A4.49,4.49,0,0,0,0,4.49V17.43a4.48,4.48,0,0,0,4.48,4.49h21A4.48,4.48,0,0,0,30,17.43V4.49A4.49,4.49,0,0,0,25.52,0Zm0,2.31h.19L15,10.11,4.29,2.31H25.52Zm2.17,15.12a2.19,2.19,0,0,1-2.17,2.19h-21a2.19,2.19,0,0,1-2.17-2.19V4.49a2.25,2.25,0,0,1,.11-.68l11.91,8.66a1.14,1.14,0,0,0,1.36,0l11.9-8.66a2.25,2.25,0,0,1,.11.68Z"/></g></g></g></svg>