<svg xmlns="http://www.w3.org/2000/svg" viewBox="0 0 142.62 36.21"><defs><style>.cls-1{fill:#231e1a;}</style></defs><g id="Capa_2" data-name="Capa 2"><g id="Capa_1-2" data-name="Capa 1"><polygon class="cls-1" points="16.89 4.73 17.09 3.5 17.78 4.54 18.87 3.93 18.49 5.12 19.64 5.59 18.48 6.03 18.83 7.23 17.76 6.59 17.04 7.61 16.87 6.38 15.63 6.45 16.48 5.55 15.65 4.62 16.89 4.73"/><polygon class="cls-1" points="16.73 25.43 17.47 25.25 17.06 25.89 17.67 26.36 16.9 26.44 16.92 27.2 16.38 26.65 15.79 27.14 15.88 26.38 15.13 26.23 15.79 25.82 15.44 25.14 16.16 25.4 16.48 24.7 16.73 25.43"/><polygon class="cls-1" points="0.45 20.23 0 19.83 0.6 19.82 0.64 19.21 1.02 19.68 1.51 19.33 1.39 19.92 1.97 20.09 1.43 20.36 1.66 20.91 1.11 20.66 0.82 21.19 0.68 20.61 0.08 20.71 0.45 20.23"/><rect class="cls-1" x="6.93" y="25.97" width="6.09" height="2.75"/><path class="cls-1" d="M6.93,29.24H13a0,0,0,0,1,0,0v.43a3,3,0,0,1-3,3h0a3,3,0,0,1-3-3v-.43A0,0,0,0,1,6.93,29.24Z"/><polygon class="cls-1" points="11.58 19.16 8.21 19.16 8.61 25.45 11.3 25.45 11.58 19.16"/><path class="cls-1" d="M9.79,6.2A7.33,7.33,0,0,0,4.12,18.05a11.88,11.88,0,0,1,2.34,5.23l.39,2.17H8l-.44-6.94h4.74L12,25.45h1.11l.36-2.18A11.57,11.57,0,0,1,15.69,18,7.33,7.33,0,0,0,9.79,6.2Z"/><path class="cls-1" d="M63.09,11.45a.89.89,0,0,1,.08-.17h0a.86.86,0,0,1,.13-.2,1.36,1.36,0,0,1,.11-.28c.51-1,1-2.65,2.4-2.62a1.71,1.71,0,0,1,1.05.37l3.59-1.37L66.51,5.55l1.3-4.08L64.07,3.56,61.7,0,61,4.23l-4.25-.37L59.61,7l-2.94,3.11,4.27-.26.59,4.24.75-1.07Z"/><rect class="cls-1" x="62.8" y="15.47" width="2.56" height="15.18"/><rect class="cls-1" x="66.31" y="15.47" width="2.56" height="15.18"/><path class="cls-1" d="M68.86,34h0a3.19,3.19,0,0,1-6.06,0h0V31.29h6.07Z"/><path class="cls-1" d="M67.19,11.4l-.85-1.7a.57.57,0,0,0-1,0l-.85,1.7Z"/><polygon class="cls-1" points="64.22 11.88 62.79 14.76 68.87 14.76 67.43 11.88 64.22 11.88"/><path class="cls-1" d="M138.2,7.53h-9.64a.45.45,0,0,0,0,.89h9.64A.45.45,0,0,0,138.2,7.53Z"/><circle class="cls-1" cx="111.85" cy="8.06" r="0.89"/><circle class="cls-1" cx="115.4" cy="8.06" r="0.89"/><circle class="cls-1" cx="118.96" cy="8.06" r="0.89"/><path class="cls-1" d="M112.6,20.78A6.36,6.36,0,1,0,119,14.42,6.36,6.36,0,0,0,112.6,20.78Zm4.58-3.49c.49,0,.88.71.88,1.58s-.39,1.57-.88,1.57-.88-.71-.88-1.57S116.7,17.29,117.18,17.29Zm3.56,0c.48,0,.88.71.88,1.58s-.4,1.57-.88,1.57-.88-.71-.88-1.57S120.25,17.29,120.74,17.29Zm-.51,7.21a3.7,3.7,0,0,0,2.38-3.44.3.3,0,0,1,.59,0,4.35,4.35,0,0,1-1,2.72,4.25,4.25,0,0,1-7.52-2.72.29.29,0,0,1,.58,0,3.68,3.68,0,0,0,5,3.44Z"/><path class="cls-1" d="M134.46,29.76H111.41a3,3,0,0,1-3-3V12.13h32.37V24.41l.14,0a6.13,6.13,0,0,1,.75.29V7.8a3.93,3.93,0,0,0-3.92-3.92H111.41a3.93,3.93,0,0,0-3.92,3.92V26.73a3.93,3.93,0,0,0,3.92,3.92h23.33c-.08-.24-.15-.48-.22-.7Zm-26.08-22a3,3,0,0,1,3-3h26.31a3,3,0,0,1,3,3v3.44H108.38Z"/><path class="cls-1" d="M142.41,29.81l-2.17-2.17a.61.61,0,0,0-.18-.11l1.14-1.15a.42.42,0,0,0-.17-.76l-6.86-2.28a.42.42,0,0,0-.47.09.43.43,0,0,0-.08.46q1.15,3.43,2.29,6.87a.41.41,0,0,0,.74.17l1-1,.15-.14c0,.06.08.12.12.16l2.18,2.18a.43.43,0,0,0,.72,0l1.59-1.59C142.68,30.27,142.68,30.08,142.41,29.81Z"/><path class="cls-1" d="M133.52,21.13a.43.43,0,0,0,.41.47.41.41,0,0,0,.41-.46q0-1.18,0-2.37a.41.41,0,0,0-.41-.46.42.42,0,0,0-.41.47v2.35Z"/><path class="cls-1" d="M128.59,23.64a.42.42,0,0,0,.47.42h2.34c.29,0,.48-.16.48-.41s-.19-.41-.48-.41h-2.33A.42.42,0,0,0,128.59,23.64Z"/><path class="cls-1" d="M137.1,19.9l-1.69,1.69a1.26,1.26,0,0,0-.15.26c0,.24.1.37.26.43a.4.4,0,0,0,.47-.1l1.69-1.69a.42.42,0,1,0-.58-.59Z"/><path class="cls-1" d="M130.28,27.51a.4.4,0,0,0,.47-.1c.57-.57,1.15-1.14,1.72-1.72a.4.4,0,0,0,0-.58.41.41,0,0,0-.6,0c-.57.57-1.14,1.13-1.7,1.71a1.17,1.17,0,0,0-.17.29A.48.48,0,0,0,130.28,27.51Z"/><path class="cls-1" d="M130.73,21l1.14,1.13a.41.41,0,0,0,.67,0,.4.4,0,0,0-.1-.54l-1.38-1.38a3.85,3.85,0,0,0-.35-.35.39.39,0,0,0-.44-.05.47.47,0,0,0-.26.39,3,3,0,0,0,.18.3C130.36,20.68,130.55,20.85,130.73,21Z"/></g></g></svg>