<svg xmlns="http://www.w3.org/2000/svg" viewBox="0 0 88.08 231.26"><defs><style>.cls-1{fill:#231e1a;}</style></defs><g id="Capa_2" data-name="Capa 2"><g id="Capa_1-2" data-name="Capa 1"><path class="cls-1" d="M41,73.15A6.07,6.07,0,0,1,41.54,72v0a6.26,6.26,0,0,1,.88-1.31,9,9,0,0,1,.64-1.75C46.36,62.33,49.41,52,58.45,52.16a10.76,10.76,0,0,1,6.69,2.4L88.08,45.8,62.81,35.46,71.11,9.4,47.28,22.75,32.13,0,27.68,27,.48,24.67,18.77,45,0,64.84l27.25-1.66,3.8,27.08,4.8-6.85Z"/><rect class="cls-1" x="39.13" y="98.79" width="16.34" height="96.93"/><rect class="cls-1" x="61.55" y="98.79" width="16.34" height="96.93"/><path class="cls-1" d="M77.82,217.17l0,.08c-6.17,18.73-32.63,18.67-38.73-.08h0V199.82H77.82Z"/><path class="cls-1" d="M67.18,72.82l-5.45-10.9a3.67,3.67,0,0,0-6.57,0l-5.43,10.9Z"/><polygon class="cls-1" points="48.21 75.88 39.06 94.23 77.88 94.23 68.71 75.88 48.21 75.88"/></g></g></svg>