<svg xmlns="http://www.w3.org/2000/svg" viewBox="0 0 105 79.19"><defs><style>.cls-1{fill:#231e1a;}</style></defs><g id="Capa_2" data-name="Capa 2"><g id="Capa_1-2" data-name="Capa 1"><path class="cls-1" d="M29.3,27.77c0,.58.53.77,1.77.77v.38h-9.7v-.38c.57,0,1-.15,1.05-.72v-16c0-1-.48-1.43-1.05-1.43-1.49,0-2.2,2-2.3,4.49v13c.05.57.48.72,1.05.72v.38h-9v-.38c.57,0,1-.15,1-.72v-16c0-1-.48-1.48-1.1-1.48-1.43,0-2,2.34-2.25,3.35V27.82c.05.57.48.72,1.06.72v.38H.15v-.38c1.24,0,1.77-.19,1.77-.77V11.48c0-.72-.86-.82-1.77-.82v-.38a16.81,16.81,0,0,0,8.69-2.2v3.83c.1-.24,1.2-3.83,4.83-3.83a4.78,4.78,0,0,1,5.12,4.07c.33-.77,1.81-4.07,5.11-4.07,3.87,0,5.4,2.63,5.4,7Z"/><path class="cls-1" d="M50.18,26.58c0,1.29.77,1.58,1.77,1.58v.38l-6,.43c-1.29,0-2.34-.34-2.63-1.63a5.2,5.2,0,0,1-4,1.63c-3.06,0-6.36-2-6.31-5.78,0-4.31,3.11-6.31,7.84-6.31a12.5,12.5,0,0,0,2.44-.29c2.19-.67,3-2.34,3-4.35s-1.67-3.77-4.4-3.77c-2.34,0-3.68.76-3.82,1.48s.38.91,1,1.48a2.86,2.86,0,0,1,.77,2.05,2.65,2.65,0,0,1-3,2.78,2.77,2.77,0,0,1-2.63-3.06c0-3.11,3.54-5.36,7.5-5.36,4.3,0,8.6,2.35,8.6,9.66Zm-6.92-.38V17.45c0-.24-.1-.33-.34-.33-4,0-4.3,2.05-4.3,5.64.05,3,.91,5.2,2.53,5.2A2.08,2.08,0,0,0,43.26,26.2Z"/><path class="cls-1" d="M72.07,12.82a2.88,2.88,0,0,1-2.91,3.1,2.79,2.79,0,0,1-3-2.82c0-1.34,1-2.15,1-2.72s-.86-.67-1.19-.67c-1.1,0-2.58.81-3.4,3.49V27.77c0,.58.53.77,1.77.77v.38H53.87v-.38c1.24,0,1.76-.19,1.76-.77V11.48c0-.72-.86-.82-1.76-.82v-.38a16.84,16.84,0,0,0,8.69-2.2v3.64a5.13,5.13,0,0,1,4.73-3.06C69.92,8.66,72.07,10,72.07,12.82Z"/><path class="cls-1" d="M102.61,26.58c0,1.29.77,1.58,1.77,1.58v.38l-6,.43c-1.29,0-2.34-.34-2.63-1.63a5.24,5.24,0,0,1-4,1.63c-3,0-6.35-2-6.3-5.78,0-4.31,3.1-6.31,7.83-6.31a12.5,12.5,0,0,0,2.44-.29c2.2-.67,3-2.34,3-4.35S97,8.47,94.25,8.47c-2.34,0-3.68.76-3.83,1.48s.39.91,1,1.48a2.86,2.86,0,0,1,.77,2.05,2.65,2.65,0,0,1-3,2.78,2.77,2.77,0,0,1-2.62-3.06c0-3.11,3.53-5.36,7.5-5.36,4.3,0,8.6,2.35,8.6,9.66Zm-6.93-.38V17.45c0-.24-.09-.33-.33-.33-4,0-4.3,2.05-4.3,5.64,0,3,.9,5.2,2.53,5.2A2.08,2.08,0,0,0,95.68,26.2Z"/><path class="cls-1" d="M29.25,57.13c0,4.16-2.72,6.74-8.84,6.74-4.4,0-8.36-1.91-8.36-5.69a3.48,3.48,0,0,1,3.44-3.44,2.74,2.74,0,0,1,2.82,3c0,1.34-.72,2.39-2,2.39-.67,0-1-.38-1.44-.38-.28,0-.52.24-.52.72,0,1.81,3.25,3,6,3,2.53,0,4.68-1,4.68-2.92,0-1.62-2.05-3.2-6-5.16-4.78-2.34-6.26-4.44-6.26-6.69,0-3.92,4.4-5.69,8.13-5.64,4.58,0,7.21,2.44,7.21,4.68a2.52,2.52,0,0,1-2.58,2.63c-1.62,0-3.15-.91-3.15-2.58s2.67-2.1,2-3.15c-.86-1-2.67-1.2-3.58-1.2-2.1-.09-3.83,1.29-3.83,2.82,0,1,.77,2.11,2.63,2.92C24.42,51.25,29.25,53.16,29.25,57.13Z"/><path class="cls-1" d="M48.37,61.53c0,1.29.76,1.58,1.77,1.58v.38l-6,.43c-1.29,0-2.34-.34-2.62-1.63a5.24,5.24,0,0,1-4,1.63c-3.06,0-6.35-2-6.31-5.79,0-4.3,3.11-6.3,7.84-6.3a12.5,12.5,0,0,0,2.44-.29c2.2-.67,3-2.34,3-4.35s-1.67-3.77-4.4-3.77c-2.34,0-3.68.76-3.82,1.48s.38.9,1,1.48a2.9,2.9,0,0,1,.76,2,2.65,2.65,0,0,1-3,2.78,2.78,2.78,0,0,1-2.63-3.06c0-3.11,3.54-5.36,7.51-5.36,4.3,0,8.6,2.35,8.6,9.66Zm-6.93-.38V52.4c0-.24-.1-.33-.34-.33-4,0-4.3,2-4.3,5.63.05,3,.91,5.21,2.54,5.21A2.08,2.08,0,0,0,41.44,61.15Z"/><path class="cls-1" d="M72,53.45c0,7.5-4.58,10.47-8,10.47a3.71,3.71,0,0,1-3.29-1.48v-.1c0,.86-.77,1.24-1.34,1.39s-1.24.14-5.59.14V37.15c0-.71-.86-.81-1.77-.81V36a16.85,16.85,0,0,0,8.7-2.2v13.1A6.88,6.88,0,0,1,66.48,43C69.3,43,72,45.61,72,53.45Zm-6.64,1.2c0-6.93-.91-9.42-2.1-9.42s-2.53,1.43-2.53,3.44v11c0,2.2.28,3.2,1.91,3.2C63.85,62.91,65.38,61.15,65.38,54.65Z"/><path class="cls-1" d="M81.68,52.73c0,4.88,1.67,8.37,5.59,8.42,2.44,0,3.44-1.25,4.64-2.39-2,4.2-4.74,5.11-7.13,5.11-5.68,0-9.65-4.49-9.65-10.51,0-7.13,5.4-10.33,9-10.33,5.55,0,8.51,3.78,8.7,9.66Zm0-.66h5.49c0-5.26-.33-8.65-2.48-8.65C83.88,43.42,81.68,43.85,81.68,52.07Z"/><path class="cls-1" d="M103.23,62.72c0,.58.53.77,1.77.77v.38H94.53v-.38c1.25,0,1.77-.19,1.77-.77V37.25c0-.72-.86-.81-1.77-.81v-.38a17,17,0,0,0,8.7-2.2Z"/><path class="cls-1" d="M.14,74.23c0-1.25.56-2,1.65-2s1.66.72,1.66,2v.44h-.9v-.44a1.36,1.36,0,0,0-.23-.93.73.73,0,0,0-.53-.16.69.69,0,0,0-.52.16,1.3,1.3,0,0,0-.24.93v3c0,.55.12.82.28,1a.72.72,0,0,0,.48.14.74.74,0,0,0,.49-.14c.15-.13.27-.4.27-1v-.53H1.48V75.8h2v1.42A2.16,2.16,0,0,1,3,78.65a1.5,1.5,0,0,1-1.25.54,1.5,1.5,0,0,1-1.24-.54,2.21,2.21,0,0,1-.41-1.43Z"/><path class="cls-1" d="M7.34,79.18H6.45V77.13a.79.79,0,0,0-.89-.91H5v3H4.12V72.25H5.56c1.2,0,1.76.69,1.76,2a2.22,2.22,0,0,1-.41,1.45l0,0-.06,0a1.81,1.81,0,0,1,.53,1.35ZM5,75.33h.55a1,1,0,0,0,.5-.09.71.71,0,0,0,.17-.13,1.44,1.44,0,0,0,.21-.88,1.36,1.36,0,0,0-.22-.9.87.87,0,0,0-.66-.19H5Z"/><path class="cls-1" d="M10.7,77.26H9.5l-.45,1.93H8.14l1.6-6.93h.71l1.61,6.93h-.92Zm-1-.89h.79l-.39-1.7Z"/><path class="cls-1" d="M13.23,76.16v3h-.88V72.25h1.44c1.17,0,1.77.71,1.77,2s-.58,2-1.77,2Zm0-3v2.13h.56a1.13,1.13,0,0,0,.5-.08.85.85,0,0,0,.16-.14,1.2,1.2,0,0,0,.21-.85,1.27,1.27,0,0,0-.21-.87.9.9,0,0,0-.66-.19Z"/><path class="cls-1" d="M18.27,75.28v-3h.9v6.93h-.9v-3H16.94v3h-.89V72.26h.89v3Z"/><path class="cls-1" d="M21.16,79.19h-.88V72.26h.88Z"/><path class="cls-1" d="M22,74.24a2.21,2.21,0,0,1,.4-1.43,1.68,1.68,0,0,1,2.49,0,2.23,2.23,0,0,1,.4,1.43v.44h-.89v-.44a1.26,1.26,0,0,0-.27-1,.69.69,0,0,0-.48-.14.67.67,0,0,0-.48.14,1.21,1.21,0,0,0-.29,1v3a1.45,1.45,0,0,0,.22.88.41.41,0,0,0,.17.14.77.77,0,0,0,.38.08.6.6,0,0,0,.54-.22,1.46,1.46,0,0,0,.21-.88v-.44h.89v.44a2.27,2.27,0,0,1-.4,1.43,1.5,1.5,0,0,1-1.24.55,1.63,1.63,0,0,1-.8-.18,1.46,1.46,0,0,1-.45-.37,2.25,2.25,0,0,1-.4-1.43Z"/><path class="cls-1" d="M28.73,79.19V72.26h1.38c1.2,0,1.76.73,1.76,2v2.92c0,1.27-.56,2-1.76,2Zm.88-6v5.17h.5a.83.83,0,0,0,.6-.18,1.3,1.3,0,0,0,.27-.95V74.26a1.32,1.32,0,0,0-.27-1,.82.82,0,0,0-.6-.17Z"/><path class="cls-1" d="M35.38,72.26v.88h-2v2.14h2v.88h-2v2.15h2v.88H32.51V72.26Z"/><path class="cls-1" d="M36.1,76.78H37v.44a1.43,1.43,0,0,0,.21.87.51.51,0,0,0,.17.14.94.94,0,0,0,.39.07.67.67,0,0,0,.64-.38,1.55,1.55,0,0,0,.12-.65,1,1,0,0,0-.27-.71,2.11,2.11,0,0,0-.58-.34l-.16-.07a2.74,2.74,0,0,1-.84-.52,1.85,1.85,0,0,1-.57-1.39,2.14,2.14,0,0,1,.46-1.44,1.57,1.57,0,0,1,1.2-.55A1.48,1.48,0,0,1,39,72.8a2.26,2.26,0,0,1,.41,1.44v.44h-.9v-.44c0-.54-.12-.83-.28-1a.69.69,0,0,0-.48-.14.64.64,0,0,0-.65.45,1.63,1.63,0,0,0-.12.65,1,1,0,0,0,.27.71,1.71,1.71,0,0,0,.6.38l.15.06a2.52,2.52,0,0,1,.82.49,1.81,1.81,0,0,1,.59,1.39,1.71,1.71,0,0,1-1.66,1.91c-1.1,0-1.66-.72-1.66-2Z"/><path class="cls-1" d="M41.1,79.19h-.89V72.26h.89Z"/><path class="cls-1" d="M41.93,74.23c0-1.25.55-2,1.64-2s1.66.72,1.66,2v.44h-.89v-.44a1.35,1.35,0,0,0-.24-.93.73.73,0,0,0-.53-.16.68.68,0,0,0-.51.16,1.29,1.29,0,0,0-.25.93v3c0,.55.12.82.28,1a.72.72,0,0,0,.48.14.74.74,0,0,0,.49-.14,1.21,1.21,0,0,0,.28-1v-.53H43.26V75.8h2v1.42a2.21,2.21,0,0,1-.4,1.43,1.72,1.72,0,0,1-2.5,0,2.21,2.21,0,0,1-.4-1.43Z"/><path class="cls-1" d="M48.49,79.18,46.79,75v4.19h-.88V72.25h.74l1.69,4.2v-4.2h.9v6.93Z"/><path class="cls-1" d="M56,76.78c0-.11,0-.22,0-.32v-.74h.9v.45a4.73,4.73,0,0,1-.27,1.73l.8,1.28H56.4l-.3-.47a2.09,2.09,0,0,1-1.39.47,1.64,1.64,0,0,1-1.28-.57A2,2,0,0,1,53,77.32a1.93,1.93,0,0,1,.33-1.14A3.13,3.13,0,0,1,54,75.5l.13-.12a4.16,4.16,0,0,1-.34-.7,2.49,2.49,0,0,1-.18-.85c0-.93.28-1.59,1.1-1.59a1,1,0,0,1,.94.61,2.24,2.24,0,0,1,.15,1,2.8,2.8,0,0,1-.38,1.45l-.16.24Zm-1.4-.63,0,0a3.48,3.48,0,0,0-.51.5,1.09,1.09,0,0,0-.18.65,1.13,1.13,0,0,0,.19.65.75.75,0,0,0,.64.32,1.1,1.1,0,0,0,.92-.38Zm0-3a.64.64,0,0,0-.07.21,4.17,4.17,0,0,0,0,.44,1.83,1.83,0,0,0,.24.82,2.09,2.09,0,0,0,.16-.82v-.12a2.26,2.26,0,0,0,0-.35c0-.06,0-.1,0-.15s0-.08-.13-.08S54.63,73.14,54.6,73.18Z"/><path class="cls-1" d="M62,79.19h-.88V72.26H62Z"/><path class="cls-1" d="M65.85,79.18h-3V72.25h.89v6h2.13Z"/><path class="cls-1" d="M69.3,79.18h-3V72.25h.88v6H69.3Z"/><path class="cls-1" d="M69.72,72.25h.88v5.09c0,.48.11.73.25.84a.6.6,0,0,0,.42.12.63.63,0,0,0,.43-.12c.14-.11.24-.36.24-.84V72.25h.88v5.09a2.08,2.08,0,0,1-.37,1.33,1.4,1.4,0,0,1-1.18.51,1.36,1.36,0,0,1-1.17-.51,2,2,0,0,1-.38-1.33Z"/><path class="cls-1" d="M73.62,76.78h.89v.44a1.36,1.36,0,0,0,.22.87s.08.09.16.14a.94.94,0,0,0,.39.07.67.67,0,0,0,.64-.38,1.55,1.55,0,0,0,.12-.65,1,1,0,0,0-.27-.71,2.21,2.21,0,0,0-.57-.34L75,76.15a2.74,2.74,0,0,1-.84-.52,1.85,1.85,0,0,1-.57-1.39,2.1,2.1,0,0,1,.47-1.44,1.53,1.53,0,0,1,1.19-.55,1.48,1.48,0,0,1,1.25.55,2.26,2.26,0,0,1,.41,1.44v.44H76v-.44c0-.54-.12-.83-.28-1a.69.69,0,0,0-.48-.14.64.64,0,0,0-.65.45,1.63,1.63,0,0,0-.12.65,1,1,0,0,0,.27.71,1.71,1.71,0,0,0,.6.38l.15.06a2.52,2.52,0,0,1,.82.49,1.81,1.81,0,0,1,.59,1.39,1.71,1.71,0,0,1-1.66,1.91c-1.1,0-1.66-.72-1.66-2Z"/><path class="cls-1" d="M77.45,72.25h3.93v.89H79.86v6H79v-6H77.45Z"/><path class="cls-1" d="M85.1,79.18h-.89V77.13a.79.79,0,0,0-.89-.91h-.55v3h-.88V72.25h1.43c1.2,0,1.76.69,1.76,2a2.22,2.22,0,0,1-.41,1.45l0,0,0,0a1.84,1.84,0,0,1,.52,1.35Zm-2.33-3.85h.55a1,1,0,0,0,.5-.09.71.71,0,0,0,.17-.13,1.44,1.44,0,0,0,.21-.88,1.36,1.36,0,0,0-.22-.9.87.87,0,0,0-.66-.19h-.55Z"/><path class="cls-1" d="M88.46,77.26h-1.2l-.44,1.93H85.9l1.6-6.93h.71l1.62,6.93H88.9Zm-1-.89h.79l-.39-1.7Z"/><path class="cls-1" d="M90.11,72.25H94v.89H92.52v6h-.9v-6H90.11Z"/><path class="cls-1" d="M95.71,79.19h-.89V72.26h.89Z"/><path class="cls-1" d="M96.53,74.23a2.28,2.28,0,0,1,.4-1.43,1.33,1.33,0,0,1,.45-.37,1.79,1.79,0,0,1,.8-.18,1.48,1.48,0,0,1,1.25.55,2.21,2.21,0,0,1,.4,1.43v3a2.25,2.25,0,0,1-.4,1.43,1.5,1.5,0,0,1-1.25.54,1.52,1.52,0,0,1-1.25-.54,2.32,2.32,0,0,1-.4-1.43Zm.89,3c0,.55.12.82.28,1a.72.72,0,0,0,.48.14.75.75,0,0,0,.48-.14c.16-.13.28-.4.28-1v-3c0-.54-.12-.82-.28-1a.69.69,0,0,0-.48-.14.67.67,0,0,0-.48.14c-.16.13-.28.41-.28,1Z"/><path class="cls-1" d="M103,79.18,101.32,75v4.19h-.88V72.25h.74l1.7,4.2v-4.2h.89v6.93Z"/><path class="cls-1" d="M73,28.92v-.38c1.24,0,1.77-.19,1.77-.77V11.48c0-.72-.86-.82-1.77-.82v-.38a16.85,16.85,0,0,0,8.7-2.2V27.77c0,.58.52.77,1.77.77v.38Z"/><polygon class="cls-1" points="77.81 1.67 79.61 0 79.43 2.45 81.86 2.82 79.83 4.21 81.06 6.33 78.71 5.62 77.81 7.9 76.91 5.62 74.56 6.33 75.78 4.21 73.76 2.82 76.19 2.45 76.01 0 77.81 1.67"/><path class="cls-1" d="M0,63.87v-.39c1.24,0,1.77-.19,1.77-.76V46.42c0-.71-.86-.81-1.77-.81v-.38A17,17,0,0,0,8.7,43V62.72c0,.57.52.76,1.77.76v.39Z"/><polygon class="cls-1" points="4.78 36.61 6.58 34.95 6.41 37.4 8.83 37.77 6.81 39.15 8.03 41.28 5.68 40.56 4.78 42.84 3.88 40.56 1.53 41.28 2.75 39.15 0.73 37.77 3.16 37.4 2.98 34.95 4.78 36.61"/></g></g></svg>