<svg xmlns="http://www.w3.org/2000/svg" viewBox="0 0 1482.09 336.69"><defs><style>.cls-1{fill:#f9ecd7;}</style></defs><g id="Capa_2" data-name="Capa 2"><g id="Capa_1-2" data-name="Capa 1"><path class="cls-1" d="M159.77,281c0-13.93,6.23-22.06,18.47-22.06S196.82,267,196.82,281v5h-10v-5c0-5.59-1-8.65-2.63-10.34s-3.8-1.8-5.92-1.8-4.22.21-5.8,1.8-2.75,4.75-2.75,10.34v33.57c0,6.23,1.38,9.18,3.17,10.66a7.93,7.93,0,0,0,5.38,1.59,8.18,8.18,0,0,0,5.49-1.59c1.69-1.48,3.06-4.43,3.06-10.66v-5.91h-12v-10h22.06v15.94c0,7-1.47,12.35-4.54,16.05-2.21,2.85-6.44,6.12-14,6.12s-11.71-3.27-13.93-6.12c-3.06-3.7-4.54-9.08-4.54-16.05Z"/><path class="cls-1" d="M240.52,336.58h-10v-23c0-6.86-3.27-10.24-9.92-10.24h-6.23v33.25h-9.92v-77.8h16.15c13.41,0,19.74,7.71,19.74,22.17,0,7.18-1.58,12.67-4.64,16.37a2.16,2.16,0,0,0-.43.52,3,3,0,0,1-.63.53c3.8,3.69,5.91,8.76,5.91,15.2ZM214.34,293.3h6.23c2.64,0,4.54-.31,5.59-.95a13.22,13.22,0,0,0,1.91-1.48c1.58-2,2.32-5.27,2.32-9.92,0-5.17-.85-8.23-2.43-10s-4.12-2.12-7.39-2.12h-6.23Z"/><path class="cls-1" d="M278.2,314.94H264.69l-5,21.75H249.49l17.95-77.8h7.91l18.16,77.8H283.16ZM267,305h8.87l-4.43-19.11Z"/><path class="cls-1" d="M306.59,302.7v33.88h-9.92v-77.8h16.15c13.2,0,19.85,7.92,19.85,21.86,0,14.25-6.44,22.06-19.85,22.06Zm0-33.89v23.86h6.23c2.75,0,4.65-.32,5.6-.95a13,13,0,0,0,1.9-1.48c1.58-1.58,2.32-4.85,2.32-9.6,0-5.07-.84-8-2.43-9.71s-4.11-2.12-7.39-2.12Z"/><path class="cls-1" d="M363.17,292.77V258.89h10v77.8h-10V302.8h-15v33.89h-9.92v-77.8h9.92v33.88Z"/><path class="cls-1" d="M395.57,336.69h-9.92v-77.8h9.92Z"/><path class="cls-1" d="M404.86,281.06c0-6.86,1.48-12.25,4.44-16.05,2.21-2.85,6.43-6.12,14-6.12s11.72,3.27,13.94,6.12c3.06,3.91,4.54,9.19,4.54,16.05v5h-10v-5c0-6-1.37-9.29-3.06-10.77a8.08,8.08,0,0,0-5.39-1.48,7.79,7.79,0,0,0-5.38,1.48c-1.79,1.48-3.17,4.75-3.17,10.77v33.35c0,4.54.85,7.92,2.43,9.93a5,5,0,0,0,1.9,1.58,8.69,8.69,0,0,0,4.22.85c3.8,0,5.28-1.48,6.13-2.43,1.58-2.11,2.32-5.39,2.32-9.93v-5h10v5c0,6.87-1.48,12.15-4.54,16-2.22,2.85-6.34,6.23-13.94,6.23a18.22,18.22,0,0,1-9-2.11,15.9,15.9,0,0,1-5.06-4.12c-3-3.8-4.44-9.18-4.44-16Z"/><path class="cls-1" d="M480.44,336.69v-77.8H496c13.41,0,19.74,8.23,19.74,22.49V314.1c0,14.25-6.33,22.59-19.74,22.59Zm9.92-67.88v58H496c2.54,0,5-.32,6.76-2s3-4.86,3-10.66V281.38c0-5.81-1.27-9-3-10.67s-4.22-1.9-6.76-1.9Z"/><path class="cls-1" d="M555.06,258.89v9.92H532.79v24h22.27v9.93H532.79v24.07h22.27v9.92H522.87v-77.8Z"/><path class="cls-1" d="M563.19,309.56h9.92v5c0,4.54.85,7.81,2.43,9.82a5,5,0,0,0,1.9,1.48,9,9,0,0,0,4.33.84,7.61,7.61,0,0,0,7.18-4.22,17.26,17.26,0,0,0,1.37-7.39,10.55,10.55,0,0,0-3.06-7.92,22.07,22.07,0,0,0-6.44-3.8l-1.9-.84a29.45,29.45,0,0,1-9.4-5.81,20.85,20.85,0,0,1-6.33-15.62c0-6.65,1.79-12.25,5.17-16.15a17.36,17.36,0,0,1,13.41-6.13c7.6,0,11.82,3.28,14,6.13,3.06,3.9,4.54,9.29,4.54,16.15v5h-10v-5c0-6-1.37-9.29-3.17-10.77a8.05,8.05,0,0,0-5.38-1.48c-4.12,0-6.12,2.22-7.29,5a18.29,18.29,0,0,0-1.37,7.28,11,11,0,0,0,3.06,8,18,18,0,0,0,6.76,4.22l1.69.74a27.33,27.33,0,0,1,9.18,5.49,20.23,20.23,0,0,1,6.55,15.52c0,11.93-6.65,21.53-18.58,21.53-12.35,0-18.58-8.13-18.58-22.06Z"/><path class="cls-1" d="M619.24,336.69h-9.92v-77.8h9.92Z"/><path class="cls-1" d="M628.53,281c0-13.93,6.22-22.06,18.47-22.06S665.58,267,665.58,281v5h-10v-5c0-5.59-1.06-8.65-2.64-10.34s-3.8-1.8-5.91-1.8-4.22.21-5.81,1.8-2.74,4.75-2.74,10.34v33.57c0,6.23,1.37,9.18,3.17,10.66a7.92,7.92,0,0,0,5.38,1.59,8.21,8.21,0,0,0,5.49-1.59c1.69-1.48,3.06-4.43,3.06-10.66v-5.91h-12v-10h22.06v15.94c0,7-1.48,12.35-4.54,16.05-2.22,2.85-6.44,6.12-14,6.12s-11.72-3.27-13.94-6.12c-3.06-3.7-4.53-9.08-4.53-16.05Z"/><path class="cls-1" d="M702.1,336.58l-19-47.08v47.08h-9.93v-77.8h8.34l19,47.08V258.78h10v77.8Z"/><path class="cls-1" d="M786.43,309.56c.11-1.16.22-2.43.22-3.59v-8.23h10v5.06c0,5.18-.31,12.67-2.95,19.32l9,14.36H790.87l-3.38-5.28c-4.12,3.48-9.29,5.28-15.52,5.28a18.31,18.31,0,0,1-14.35-6.34,21.8,21.8,0,0,1-5-14.46,21.56,21.56,0,0,1,3.69-12.77c2.11-3.17,5-5.49,7.6-7.71a17.66,17.66,0,0,0,1.48-1.26,50.28,50.28,0,0,1-3.8-7.92,26.89,26.89,0,0,1-2-9.5c0-10.45,3.17-17.84,12.35-17.84a10.78,10.78,0,0,1,10.56,6.86c1.58,3.38,1.69,7.6,1.69,11a31.16,31.16,0,0,1-4.33,16.25c-.74,1.17-1.27,1.91-1.8,2.64Zm-15.72-7.07-.32.31c-2.43,2.12-4.43,3.7-5.7,5.6a11.93,11.93,0,0,0-2.11,7.28,12.69,12.69,0,0,0,2.21,7.29,8.33,8.33,0,0,0,7.18,3.59c4.54,0,7.92-1.38,10.24-4.23Zm0-33.25a7.24,7.24,0,0,0-.74,2.32,28.08,28.08,0,0,0-.32,5,20.84,20.84,0,0,0,2.74,9.18,24.41,24.41,0,0,0,1.8-9.18v-1.37a26.68,26.68,0,0,0-.32-3.91,7.26,7.26,0,0,0-.53-1.69c-.31-.74-.42-.84-1.37-.84S771,268.81,770.71,269.24Z"/><path class="cls-1" d="M853.77,336.69h-9.92v-77.8h9.92Z"/><path class="cls-1" d="M897,336.58H863.06v-77.8H873v67.88h24Z"/><path class="cls-1" d="M935.58,336.58H901.69v-77.8h9.93v67.88h24Z"/><path class="cls-1" d="M940.33,258.78h9.92v57.11c0,5.39,1.16,8.13,2.74,9.4a8.92,8.92,0,0,0,9.5,0c1.59-1.27,2.75-4,2.75-9.4V258.78h9.92v57.11c0,6.44-1.37,11.4-4.22,14.89-2.11,2.85-6.12,5.8-13.2,5.8s-11.08-2.95-13.19-5.8c-2.85-3.49-4.22-8.45-4.22-14.89Z"/><path class="cls-1" d="M984.13,309.56h9.92v5c0,4.54.85,7.81,2.43,9.82a5,5,0,0,0,1.9,1.48,9,9,0,0,0,4.33.84,7.61,7.61,0,0,0,7.18-4.22,17.26,17.26,0,0,0,1.37-7.39,10.55,10.55,0,0,0-3.06-7.92,22.2,22.2,0,0,0-6.44-3.8l-1.9-.84a29.45,29.45,0,0,1-9.4-5.81,20.85,20.85,0,0,1-6.33-15.62c0-6.65,1.79-12.25,5.17-16.15a17.36,17.36,0,0,1,13.41-6.13c7.6,0,11.82,3.28,14,6.13,3.06,3.9,4.54,9.29,4.54,16.15v5h-10v-5c0-6-1.37-9.29-3.17-10.77a8.05,8.05,0,0,0-5.38-1.48c-4.12,0-6.12,2.22-7.29,5a18.29,18.29,0,0,0-1.37,7.28,11,11,0,0,0,3.06,8,18,18,0,0,0,6.76,4.22l1.69.74a27.33,27.33,0,0,1,9.18,5.49,20.23,20.23,0,0,1,6.55,15.52c0,11.93-6.65,21.53-18.58,21.53-12.35,0-18.58-8.13-18.58-22.06Z"/><path class="cls-1" d="M1027.09,258.78h44v10h-17v67.77h-10V268.81h-17Z"/><path class="cls-1" d="M1112.9,336.58h-10v-23c0-6.86-3.28-10.24-9.93-10.24h-6.22v33.25h-9.93v-77.8H1093c13.41,0,19.74,7.71,19.74,22.17,0,7.18-1.58,12.67-4.64,16.37a1.94,1.94,0,0,0-.42.52,2.77,2.77,0,0,1-.64.53c3.8,3.69,5.91,8.76,5.91,15.2Zm-26.17-43.28H1093c2.64,0,4.54-.31,5.6-.95a13,13,0,0,0,1.9-1.48c1.58-2,2.32-5.27,2.32-9.92,0-5.17-.84-8.23-2.43-10s-4.11-2.12-7.39-2.12h-6.22Z"/><path class="cls-1" d="M1150.59,314.94h-13.52l-5,21.75h-10.24l18-77.8h7.92l18.15,77.8h-10.34ZM1139.4,305h8.86l-4.43-19.11Z"/><path class="cls-1" d="M1169.06,258.78h44v10h-17v67.77h-10V268.81h-17Z"/><path class="cls-1" d="M1231.86,336.69h-9.92v-77.8h9.92Z"/><path class="cls-1" d="M1241.15,281c0-6.86,1.48-12.24,4.43-16a17.57,17.57,0,0,1,5.07-4.12,19.45,19.45,0,0,1,9-2c7.6,0,11.82,3.28,14,6.13,3,3.8,4.43,9.18,4.43,16v33.46c0,6.87-1.47,12.25-4.43,16-2.22,2.85-6.44,6.12-14,6.12s-11.82-3.27-14-6.12c-2.95-3.8-4.43-9.18-4.43-16Zm9.92,33.46c0,6.23,1.37,9.19,3.17,10.67a7.91,7.91,0,0,0,5.38,1.58,8.24,8.24,0,0,0,5.39-1.58c1.79-1.48,3.16-4.44,3.16-10.67V281c0-6-1.37-9.18-3.16-10.66a8.09,8.09,0,0,0-5.39-1.48,7.78,7.78,0,0,0-5.38,1.48c-1.8,1.48-3.17,4.65-3.17,10.66Z"/><path class="cls-1" d="M1313.88,336.58l-19-47.08v47.08H1285v-77.8h8.34l19,47.08V258.78h10v77.8Z"/><path class="cls-1" d="M195.2,190c0,3.84,3.52,5.12,11.84,5.12v2.56h-65v-2.56c3.84,0,6.72-1,7-4.8V83.07c0-6.72-3.2-9.6-7-9.6-9.92,0-14.72,13.76-15.36,30.08v86.72c.32,3.84,3.2,4.8,7,4.8v2.56H73.6v-2.56c3.84,0,6.72-1,7-4.8V83.07c0-6.72-3.2-9.92-7.36-9.92-9.6,0-13.44,15.68-15,22.4v94.72c.32,3.84,3.2,4.8,7,4.8v2.56H0v-2.56c8.32,0,11.84-1.28,11.84-5.12V80.83c0-4.8-5.76-5.44-11.84-5.44V72.83c22.08,0,42.24-5.12,58.24-14.73V83.71c.64-1.6,8-25.61,32.32-25.61,19.52,0,30.4,10.25,34.24,27.21C127,80.19,137,58.1,159,58.1c25.92,0,36.16,17.61,36.16,47.05Z"/><path class="cls-1" d="M335.05,182c0,8.64,5.12,10.56,11.84,10.56v2.56L306.57,198c-8.64,0-15.68-2.24-17.6-10.88-6.4,7.36-16.32,10.88-26.88,10.88-20.48,0-42.56-13.44-42.24-38.72,0-28.8,20.8-42.24,52.48-42.24,2.88,0,11.84-.64,16.32-1.92,14.72-4.48,19.84-15.68,19.84-29.12s-11.2-25.28-29.44-25.28c-15.68,0-24.64,5.12-25.6,9.92s2.56,6.08,6.4,9.92C263.37,84,265,89.15,265,94.27c0,12.8-9.6,19.52-20.16,18.56-10.88-1-17.6-8.32-17.6-20.48,0-20.8,23.68-35.84,50.24-35.84,28.8,0,57.6,15.67,57.6,64.64Zm-46.4-2.56V120.83c0-1.6-.64-2.24-2.24-2.24-26.88,0-28.8,13.76-28.8,37.76.32,19.84,6.08,34.88,17,34.88C281.29,191.23,288.65,185.79,288.65,179.39Z"/><path class="cls-1" d="M481.62,89.79c0,14.08-9.92,20.8-19.52,20.8s-19.84-6.08-19.84-18.88c0-9,6.4-14.4,6.4-18.24,0-3.52-5.76-4.48-8-4.48-7.36,0-17.28,5.44-22.72,23.36V190c0,3.84,3.52,5.12,11.84,5.12v2.56H359.69v-2.56c8.32,0,11.84-1.28,11.84-5.12V80.83c0-4.8-5.76-5.44-11.84-5.44V72.83c22.08,0,42.25-5.12,58.25-14.73V82.43c5.44-11.52,16.32-20.49,31.68-20.49C467.22,61.94,481.62,70.91,481.62,89.79Z"/><path class="cls-1" d="M686.1,182c0,8.64,5.12,10.56,11.84,10.56v2.56L657.62,198c-8.64,0-15.68-2.24-17.6-10.88-6.4,7.36-16.32,10.88-26.88,10.88-20.48,0-42.56-13.44-42.24-38.72,0-28.8,20.8-42.24,52.48-42.24,2.88,0,11.84-.64,16.32-1.92,14.72-4.48,19.84-15.68,19.84-29.12s-11.2-25.28-29.44-25.28c-15.68,0-24.64,5.12-25.6,9.92s2.56,6.08,6.4,9.92C614.42,84,616,89.15,616,94.27c0,12.8-9.6,19.52-20.16,18.56-10.88-1-17.6-8.32-17.6-20.48,0-20.8,23.68-35.84,50.24-35.84,28.8,0,57.6,15.67,57.6,64.64Zm-46.4-2.56V120.83c0-1.6-.64-2.24-2.24-2.24-26.88,0-28.8,13.76-28.8,37.76.32,19.84,6.08,34.88,17,34.88C632.34,191.23,639.7,185.79,639.7,179.39Z"/><path class="cls-1" d="M488,197.63v-2.56c8.32,0,11.84-1.28,11.84-5.12V80.83c0-4.8-5.76-5.44-11.84-5.44V72.83c22.08,0,42.24-5.12,58.24-14.73V190c0,3.84,3.52,5.12,11.84,5.12v2.56Z"/><polygon class="cls-1" points="520.03 15.13 532.1 3.98 530.9 20.37 547.15 22.85 533.59 32.14 541.78 46.39 526.06 41.58 520.03 56.86 513.99 41.58 498.28 46.39 506.47 32.14 492.9 22.85 509.15 20.37 507.96 3.98 520.03 15.13"/><path class="cls-1" d="M974.88,156.48c0,27.84-18.24,45.12-59.2,45.12-29.44,0-56-12.8-56-38.08,0-13.76,11.84-23,23-23,9.92,0,18.88,6.4,18.88,20.16,0,9-4.8,16-13.12,16-4.48,0-6.4-2.56-9.6-2.56-1.92,0-3.52,1.6-3.52,4.8,0,12.16,21.76,20.16,40.32,20.16,17,0,31.36-6.72,31.36-19.52,0-10.88-13.76-21.44-40.32-34.56-32-15.68-41.92-29.76-41.92-44.8,0-26.24,29.44-38.08,54.4-37.76,30.72,0,48.32,16.32,48.32,31.36,0,9.6-6.72,17.6-17.28,17.6-10.88,0-21.12-6.08-21.12-17.28C929.12,83.2,947,80,942.88,73c-5.76-6.72-17.92-8-24-8-14.08-.64-25.6,8.64-25.6,18.88,0,7,5.12,14.08,17.6,19.52C942.56,117.12,974.88,129.92,974.88,156.48Z"/><path class="cls-1" d="M1102.89,185.92c0,8.64,5.12,10.56,11.84,10.56V199l-40.32,2.88c-8.64,0-15.68-2.24-17.6-10.88-6.4,7.36-16.32,10.88-26.88,10.88-20.48,0-42.56-13.44-42.24-38.72,0-28.8,20.8-42.24,52.48-42.24,2.88,0,11.84-.64,16.32-1.92,14.72-4.48,19.84-15.68,19.84-29.12s-11.2-25.28-29.44-25.28c-15.68,0-24.64,5.12-25.6,9.92s2.56,6.08,6.4,9.92c3.52,3.52,5.12,8.64,5.12,13.76,0,12.8-9.6,19.52-20.16,18.56-10.88-1-17.6-8.32-17.6-20.48,0-20.8,23.68-35.84,50.24-35.84,28.8,0,57.6,15.68,57.6,64.64Zm-46.4-2.56V124.8c0-1.6-.64-2.24-2.24-2.24-26.88,0-28.8,13.76-28.8,37.76.32,19.84,6.08,34.88,17,34.88C1049.13,195.2,1056.49,189.76,1056.49,183.36Z"/><path class="cls-1" d="M1261.29,131.84c0,50.24-30.72,70.08-53.44,70.08-9.92,0-18.24-3.52-22.08-9.92v-.64c0,5.76-5.12,8.32-9,9.28-4.8,1-8.32,1-37.44,1V22.72c0-4.8-5.76-5.44-11.84-5.44V14.72c22.08,0,42.24-5.12,58.24-14.72V87.68c6.4-13.76,22.72-25.92,38.4-25.92C1243.05,61.76,1261.29,79.36,1261.29,131.84Zm-44.48,8c0-46.4-6.08-63-14.08-63-8.64,0-17,9.6-17,23v73.92c0,14.72,1.92,21.44,12.8,21.44C1206.57,195.2,1216.81,183.36,1216.81,139.84Z"/><path class="cls-1" d="M1325.93,127c0,32.64,11.2,56,37.44,56.32,16.32,0,23-8.32,31-16-13.44,28.16-31.68,34.24-47.68,34.24-38.08,0-64.64-30.08-64.64-70.4,0-47.68,36.16-69.12,60.48-69.12,37.12,0,57,25.28,58.24,64.64Zm0-4.48h36.8c0-35.2-2.24-57.92-16.64-57.92C1340.65,64.64,1325.93,67.52,1325.93,122.56Z"/><path class="cls-1" d="M1470.25,193.92c0,3.84,3.52,5.12,11.84,5.12v2.56H1412V199c8.32,0,11.84-1.28,11.84-5.12V23.36c0-4.8-5.76-5.44-11.84-5.44V15.36c22.08,0,42.24-5.12,58.24-14.72Z"/><path class="cls-1" d="M779,201.59V199c8.32,0,11.84-1.28,11.84-5.12V84.78c0-4.8-5.76-5.44-11.84-5.44V76.78c22.08,0,42.24-5.12,58.24-14.72V193.91c0,3.84,3.52,5.12,11.84,5.12v2.56Z"/><polygon class="cls-1" points="811.03 19.09 823.1 7.93 821.9 24.33 838.15 26.81 824.59 36.1 832.78 50.35 817.06 45.53 811.03 60.82 804.99 45.53 789.28 50.35 797.47 36.1 783.9 26.81 800.15 24.33 798.96 7.93 811.03 19.09"/><circle class="cls-1" cx="738.98" cy="139.19" r="10.5"/></g></g></svg>