<svg xmlns="http://www.w3.org/2000/svg" viewBox="0 0 307.12 249.13"><defs><style>.cls-1{fill:#231e1a;}</style></defs><g id="Capa_2" data-name="Capa 2"><g id="Capa_1-2" data-name="Capa 1"><path class="cls-1" d="M268.79,33.67H185.07c-5,0-5,7.73,0,7.73h83.72C273.76,41.4,273.77,33.67,268.79,33.67Z"/><circle class="cls-1" cx="39.85" cy="38.31" r="7.72"/><path class="cls-1" d="M70.75,30.58a7.73,7.73,0,1,0,7.72,7.73A7.73,7.73,0,0,0,70.75,30.58Z"/><circle class="cls-1" cx="101.65" cy="38.31" r="7.72"/><path class="cls-1" d="M46.42,148.77a55.23,55.23,0,1,0,55.23-55.23A55.23,55.23,0,0,0,46.42,148.77ZM86.2,118.5c4.22,0,7.65,6.12,7.65,13.66s-3.43,13.65-7.65,13.65-7.65-6.11-7.65-13.65S82,118.5,86.2,118.5Zm52.25,32.71a37.63,37.63,0,0,1-8.6,23.68,36.93,36.93,0,0,1-65.28-23.68c0-3.26,5-3.25,5.06,0a31.88,31.88,0,1,0,63.76,0C133.42,148,138.48,148,138.45,151.21ZM117.1,118.5c4.22,0,7.64,6.12,7.64,13.66s-3.42,13.65-7.64,13.65-7.65-6.11-7.65-13.65S112.87,118.5,117.1,118.5Z"/><path class="cls-1" d="M239.59,230.62c-.3-1-.59-1.9-.89-2.8l-1-3H36a24.35,24.35,0,0,1-24.32-24.32V75.63H288.9v106.1l3.51,1.17a35.06,35.06,0,0,1,5.29,2l2.92,1.53V36a36.08,36.08,0,0,0-36-36H36A36.08,36.08,0,0,0,0,36V200.47a36.08,36.08,0,0,0,36,36H241.53l-.9-2.64C240.27,232.78,239.92,231.69,239.59,230.62ZM11.72,63.91V36A24.35,24.35,0,0,1,36,11.72H264.59A24.35,24.35,0,0,1,288.9,36V63.91Z"/><path class="cls-1" d="M305.35,227.19q-9.41-9.42-18.84-18.82a9,9,0,0,0-1.58-1c3.58-3.59,6.77-6.74,9.93-9.93,2.53-2.55,1.85-5.46-1.55-6.6L233.81,171a3.62,3.62,0,0,0-4.8,4.76q9.94,29.84,19.89,59.66c1.07,3.22,4,3.91,6.41,1.54,2.9-2.85,5.76-5.75,8.64-8.62.36-.36.74-.68,1.35-1.23a13.5,13.5,0,0,0,1,1.37q9.46,9.5,18.94,19c2.24,2.23,4,2.23,6.25,0q6.9-6.88,13.79-13.79C307.71,231.26,307.72,229.56,305.35,227.19Z"/><path class="cls-1" d="M228.14,131.38c0,3.38,0,6.76,0,10.14s0,6.87,0,10.3c0,2.43,1.42,4,3.52,4.05s3.6-1.55,3.61-4q0-10.31,0-20.6c0-2.41-1.5-4-3.6-4S228.16,129,228.14,131.38Z"/><path class="cls-1" d="M185.34,173.62c-.06,2.16,1.56,3.64,4.06,3.66,3.38,0,6.76,0,10.14,0s6.76,0,10.14,0c2.55,0,4.16-1.41,4.17-3.55s-1.61-3.57-4.14-3.57q-10.14,0-20.28,0C187,170.16,185.39,171.54,185.34,173.62Z"/><path class="cls-1" d="M259.21,141.17c-4.91,4.87-9.81,9.75-14.65,14.69a9.06,9.06,0,0,0-1.3,2.22c.13,2.09.83,3.2,2.24,3.77a3.5,3.5,0,0,0,4.05-.93c4.89-4.89,9.8-9.77,14.67-14.68,1.69-1.71,1.74-3.86.23-5.34A3.63,3.63,0,0,0,259.21,141.17Z"/><path class="cls-1" d="M200,207.23a3.42,3.42,0,0,0,4.06-.85q7.47-7.42,14.9-14.9a3.52,3.52,0,0,0,.14-5.12,3.59,3.59,0,0,0-5.23.15c-5,4.91-9.89,9.83-14.78,14.81a11.18,11.18,0,0,0-1.44,2.51A4,4,0,0,0,200,207.23Z"/><path class="cls-1" d="M203.9,151c3.28,3.29,6.55,6.59,9.86,9.85,1.94,1.91,4.55,1.71,5.83-.37.94-1.54.69-3.19-.83-4.72-4-4-8-8-12-12-1-1-2-2.06-3.06-3a3.39,3.39,0,0,0-3.86-.46,4.13,4.13,0,0,0-2.23,3.35,15,15,0,0,0,1.59,2.6C200.71,147.88,202.33,149.4,203.9,151Z"/></g></g></svg>