<svg xmlns="http://www.w3.org/2000/svg" viewBox="0 0 280.33 227.05"><defs><style>.cls-1{fill:#231e1a;}</style></defs><g id="Capa_2" data-name="Capa 2"><g id="Capa_1-2" data-name="Capa 1"><path class="cls-1" d="M245.12,29.1H168.2c-4.57,0-4.57,7.1,0,7.1h76.92C249.69,36.2,249.69,29.1,245.12,29.1Z"/><circle class="cls-1" cx="34.78" cy="33.36" r="7.1"/><circle class="cls-1" cx="63.16" cy="33.36" r="7.1"/><circle class="cls-1" cx="91.55" cy="33.36" r="7.1"/><path class="cls-1" d="M40.81,134.84A50.75,50.75,0,1,0,91.55,84.1,50.75,50.75,0,0,0,40.81,134.84ZM77.36,107c3.88,0,7,5.62,7,12.55s-3.14,12.54-7,12.54-7-5.62-7-12.54S73.48,107,77.36,107Zm28.39,0c3.88,0,7,5.62,7,12.55s-3.14,12.54-7,12.54-7-5.62-7-12.54S101.87,107,105.75,107Zm-4.07,57.5a29.57,29.57,0,0,0,19-27.45c0-3,4.68-3,4.65,0a34.49,34.49,0,0,1-7.9,21.75,33.93,33.93,0,0,1-60-21.75c0-3,4.61-3,4.65,0a29.28,29.28,0,0,0,39.54,27.45Z"/><path class="cls-1" d="M215.21,206.52H31.27A24.19,24.19,0,0,1,7.1,182.35V65.81H265.43v98l1.14.39a40.1,40.1,0,0,1,6,2.27V31.27A31.31,31.31,0,0,0,241.25,0h-210A31.31,31.31,0,0,0,0,31.27V182.35a31.31,31.31,0,0,0,31.27,31.27H217.51c-.64-1.9-1.2-3.81-1.79-5.56ZM7.1,31.27A24.19,24.19,0,0,1,31.27,7.1h210a24.2,24.2,0,0,1,24.18,24.17V58.72H7.1Z"/><path class="cls-1" d="M278.7,206.89q-8.64-8.65-17.31-17.29a8.06,8.06,0,0,0-1.45-.91c3.3-3.29,6.22-6.19,9.12-9.12,2.33-2.34,1.71-5-1.42-6.06Q240.31,164.39,213,155.3a3.32,3.32,0,0,0-4.4,4.37q9.13,27.41,18.27,54.81c1,3,3.67,3.6,5.89,1.42,2.67-2.62,5.29-5.28,7.94-7.92.33-.33.68-.62,1.24-1.13a12.44,12.44,0,0,0,1,1.26q8.69,8.71,17.4,17.41c2.05,2,3.67,2,5.74,0l12.66-12.67C280.88,210.63,280.89,209.08,278.7,206.89Z"/><path class="cls-1" d="M207.77,137.65c0,2.23,1.3,3.69,3.23,3.72s3.31-1.43,3.32-3.64q0-9.47,0-18.92c0-2.22-1.38-3.66-3.31-3.64s-3.23,1.48-3.24,3.7c0,3.11,0,6.21,0,9.32S207.76,134.5,207.77,137.65Z"/><path class="cls-1" d="M168.44,157.68c-.05,2,1.44,3.34,3.74,3.36,3.1,0,6.21,0,9.31,0s6.22,0,9.32,0c2.34,0,3.82-1.29,3.83-3.26s-1.48-3.28-3.8-3.29q-9.33,0-18.64,0C170,154.5,168.49,155.76,168.44,157.68Z"/><path class="cls-1" d="M236.32,127.86q-6.78,6.72-13.47,13.5a8.15,8.15,0,0,0-1.19,2c.12,1.92.76,2.94,2.05,3.47a3.22,3.22,0,0,0,3.73-.86c4.49-4.49,9-9,13.48-13.49,1.55-1.56,1.6-3.54.21-4.9A3.33,3.33,0,0,0,236.32,127.86Z"/><path class="cls-1" d="M181.93,188.55a3.14,3.14,0,0,0,3.73-.77q6.85-6.83,13.68-13.7a3.22,3.22,0,0,0,.13-4.69,3.3,3.3,0,0,0-4.81.13q-6.82,6.76-13.57,13.6a11.13,11.13,0,0,0-1.33,2.31A3.73,3.73,0,0,0,181.93,188.55Z"/><path class="cls-1" d="M185.5,136.86c3,3,6,6.06,9.06,9,1.78,1.75,4.18,1.57,5.35-.34.87-1.41.63-2.93-.76-4.34q-5.49-5.52-11-11c-.93-.93-1.82-1.9-2.81-2.75a3.1,3.1,0,0,0-3.54-.42,3.77,3.77,0,0,0-2,3.08,14.4,14.4,0,0,0,1.46,2.39C182.56,134,184.05,135.42,185.5,136.86Z"/></g></g></svg>